<svg width="27" height="27" fill="none" xmlns="http://www.w3.org/2000/svg"><path d="M13.654 11.378c1.042 0 1.852-.867 1.832-1.812a1.826 1.826 0 00-1.813-1.833c-1.002 0-1.832.81-1.832 1.813s.81 1.832 1.813 1.832z" fill="#CDCDCD"/><path d="M13.5 0C6.056 0 0 6.056 0 13.5 0 20.963 6.056 27 13.5 27 20.963 27 27 20.944 27 13.5 27.02 6.056 20.963 0 13.5 0zm.193 5.11c2.43 0 4.435 2.006 4.416 4.456a4.42 4.42 0 01-4.493 4.416 4.45 4.45 0 01-4.378-4.436 4.44 4.44 0 014.455-4.435zm4.956 10.415c0 .038-.019.058-.019.096-.058.386-.25.695-.579.907-.212.135-.443.27-.675.386a8.664 8.664 0 01-1.832.674c-.077.02-.077.02-.019.078l1.06 1.06 1.35 1.35a1.288 1.288 0 01-.346 2.083c-.136.077-.29.097-.444.135h-.25c-.02 0-.04 0-.04-.02-.308-.038-.559-.192-.79-.404l-2.334-2.334c-.057-.058-.057-.058-.115 0l-2.353 2.353c-.135.135-.27.232-.444.309-.115.058-.25.077-.366.096h-.25c-.04 0-.059-.02-.097-.02-.521-.096-.868-.385-1.022-.886-.155-.502-.039-.945.327-1.312l.965-.964 1.427-1.427c.058-.058.058-.058-.02-.077-.019 0-.057-.02-.077-.02a8.336 8.336 0 01-2.41-1.022c-.444-.289-.656-.713-.598-1.234a1.295 1.295 0 011.986-.964c.155.096.29.173.463.25a5.49 5.49 0 002.816.58 5.54 5.54 0 001.446-.27c.463-.155.868-.367 1.292-.599a1.3 1.3 0 011.871.675c.039.116.058.212.077.328v.193z" fill="#CDCDCD"/></svg>