<svg width="27" height="27" fill="none" xmlns="http://www.w3.org/2000/svg"><path d="M19.455 15.709c-1.111-1.064-1.19-1.064-.238-2.29 1.191-1.555 2.78-3.519 1.35-3.519h-2.62c-.477 0-.556.327-.715.736-.635 1.555-1.906 3.6-2.382 3.273-.477-.327-.239-1.555-.239-3.518a.65.65 0 00-.159-.654c-.158-.164-.396-.328-.635-.328-.397-.082-.794-.163-1.19-.163-1.51 0-2.542.654-1.986.736 1.032.164.953 2.454.714 3.436-.396 1.718-1.985-1.309-2.7-2.863a.779.779 0 00-.793-.655H5.797c-.318 0-.556.082-.556.327 0 .41 1.985 4.418 3.812 6.464 1.826 1.963 3.652 1.8 4.923 1.8a.597.597 0 00.397-.164.635.635 0 00.159-.41c0-1.308.476-1.963 1.35-1.063.953.982 1.191 1.637 2.382 1.637h2.144c.556 0 .715-.164.715-.41.08-.572-.874-1.636-1.668-2.372zM13.817 0C21.202.164 27.08 6.3 27 13.745 26.92 21.19 20.805 27.081 13.42 27 5.956 26.917 0 20.945 0 13.499.08 5.974 6.273-.08 13.817.002z" fill="#CDCDCD"/></svg>